<svg version="1.2" xmlns="http://www.w3.org/2000/svg" viewBox="0 0 375 110" width="375" height="110">
	<title>Newvoid-svg</title>
	<style>
		.s0 { fill: #000000 } 
		.s1 { fill: #08a4a7 } 
	</style>
	<g id="Layer">
		<g id="Layer">
			<g id="Layer">
				<path id="Layer" class="s0" d="m12 75.4v-42.7h14.7v4.5h0.2q5.7-5.7 12.2-5.7 4.7 0 8.8 1.9 4.1 1.9 6.1 5.9 6.5-7.8 14.2-7.8 6.8 0 11.7 3.8 4.9 3.8 4.9 12v28.1h-14.7v-24.1q0-3.4-1.9-5.7-1.8-2.3-5.6-2.3-3.2 0-5 1.9-1.7 2-1.8 4.7v25.5h-14.8v-24.1q0-3.4-1.8-5.7-1.9-2.3-5.7-2.3-3.4 0-5.1 2.1-1.7 2.1-1.7 5v25z"/>
			</g>
		</g>
	</g>
	<g id="Layer">
		<g id="Layer">
			<g id="Layer">
				<path id="Layer" fill-rule="evenodd" class="s0" d="m85 15.1q0 3.5 2.6 6.1 2.5 2.6 6.1 2.6 3.6 0 6.2-2.6 2.6-2.6 2.6-6.1 0-3.6-2.6-6.2-2.6-2.6-6.2-2.6-3.6 0-6.1 2.6-2.6 2.6-2.6 6.2zm1.2 17.6v42.7h14.7v-42.7z"/>
			</g>
		</g>
	</g>
	<g id="Layer">
		<g id="Layer">
			<g id="Layer">
				<path id="Layer" class="s0" d="m152.9 75.4h-17.8l-9.4-12.1-9.4 12.1h-17.8l18.2-22.3-15.7-20.4h17.3l7.4 9.9 7.4-9.9h17.2l-15.6 20.4z"/>
			</g>
		</g>
	</g>
	<g id="Layer">
		<g id="Layer">
			<g id="Layer">
				<path id="Layer" fill-rule="evenodd" class="s0" d="m153 70.1q-6-6.5-6-16 0-9.5 6-16.1 6-6.5 15.2-6.5 8.5 0 14 5.3v-33h14.8v71.6h-14.6v-4.8h-0.2q-5.5 6.1-14 6.1-9.2 0-15.2-6.6zm12.5-23.2q-2.9 2.8-2.9 7.2 0 4.4 2.8 7.2 2.7 2.8 7.2 2.8 4.4 0 7.1-2.8 2.8-2.9 2.8-7.2 0-4.4-2.8-7.2-2.9-2.9-7.1-2.9-4.2 0-7.1 2.9z"/>
			</g>
		</g>
	</g>
	<g id="Layer">
		<g id="Layer">
			<g id="Layer">
				<path id="Layer" fill-rule="evenodd" class="s0" d="m197.9 15.1q0 3.5 2.6 6.1 2.6 2.6 6.2 2.6 3.6 0 6.1-2.6 2.6-2.6 2.6-6.1 0-3.6-2.6-6.2-2.5-2.6-6.1-2.6-3.6 0-6.2 2.6-2.6 2.6-2.6 6.2zm1.2 17.6v42.7h14.7v-42.7z"/>
			</g>
		</g>
	</g>
	<g id="Layer">
		<g id="Layer">
			<g id="Layer">
				<path id="Layer" fill-rule="evenodd" class="s0" d="m219.3 70.1q-6-6.5-6-16 0-9.5 6-16.1 6-6.5 15.3-6.5 8.5 0 14 5.3v-4.1h14.7v42.7h-14.6v-4.8h-0.1q-5.5 6.1-14 6.1-9.3 0-15.3-6.6zm12.6-23.2q-2.9 2.8-2.9 7.2 0 4.4 2.7 7.2 2.8 2.8 7.3 2.8 4.3 0 7.1-2.8 2.8-2.9 2.8-7.2 0-4.4-2.9-7.2-2.9-2.9-7-2.9-4.3 0-7.1 2.9z"/>
			</g>
		</g>
	</g>
	<g id="Layer">
		<g id="Layer">
			<g id="Layer">
				<path id="Layer" class="s0" d="m265.4 75.4v-42.7h14.8v6.2h0.2q0.1-0.4 0.5-0.9 0.4-0.5 1.6-1.7 1.3-1.3 2.7-2.2 1.4-1 3.6-1.8 2.3-0.8 4.6-0.8 2.4 0 4.8 0.6 2.3 0.7 3.4 1.4l1.1 0.6-6.1 12.5q-2.8-2.3-7.7-2.3-2.6 0-4.6 1.2-1.9 1.1-2.7 2.8-0.8 1.6-1.1 2.8-0.3 1.2-0.3 1.8v22.5z"/>
			</g>
		</g>
	</g>
	<g id="Layer">
		<g id="Layer">
			<g id="Layer">
				<path id="Layer" class="s0" d="m331.5 32.7h16.9l-33.5 64.4h-17l14.7-28.3-20.2-36.1h17l11.9 21.9z"/>
			</g>
		</g>
	</g>
	<g id="Layer">
		<g id="Layer">
			<g id="Layer">
				<path id="Layer" class="s1" d="m353.4 57.6q4 0 6.8 2.8 2.8 2.8 2.8 6.8 0 3.9-2.8 6.7-2.8 2.8-6.8 2.8-3.9 0-6.7-2.8-2.8-2.8-2.8-6.7 0-4 2.8-6.8 2.8-2.8 6.7-2.8z"/>
			</g>
		</g>
	</g>
	<g id="Layer">
		<g id="Layer">
			<g id="Layer">
				<path id="Layer" fill-rule="evenodd" class="s0" d="m149.6 89q1.2 0 2.1 0.6 0.9 0.6 1.4 1.6 0.6 1.1 0.6 2.4 0 1.3-0.6 2.3-0.5 1.1-1.4 1.7-0.9 0.6-2 0.6-0.9 0-1.7-0.4-0.7-0.4-1.2-1v0.5q0 0.3-0.2 0.6-0.2 0.2-0.6 0.2-0.3 0-0.5-0.2-0.3-0.2-0.3-0.6v-10.9q0-0.3 0.3-0.6 0.2-0.2 0.5-0.2 0.4 0 0.6 0.2 0.2 0.3 0.2 0.6v4.1q0.4-0.6 1.2-1.1 0.8-0.4 1.6-0.4zm-0.1 7.7q0.7 0 1.3-0.4 0.7-0.4 1-1.1 0.4-0.8 0.4-1.6 0-0.9-0.4-1.6-0.3-0.7-1-1.1-0.6-0.4-1.3-0.4-0.8 0-1.5 0.4-0.6 0.4-0.9 1.1-0.4 0.7-0.4 1.6 0 0.9 0.4 1.6 0.3 0.7 0.9 1.1 0.7 0.4 1.5 0.4z"/>
			</g>
		</g>
	</g>
	<g id="Layer">
		<g id="Layer">
			<g id="Layer">
				<path id="Layer" class="s0" d="m168.2 97.2q0 0.3-0.3 0.6-0.2 0.2-0.5 0.2-0.4 0-0.6-0.2-0.2-0.3-0.2-0.6v-10.8q0-0.3 0.2-0.6 0.3-0.2 0.6-0.2 0.3 0 0.5 0.2 0.3 0.3 0.3 0.6z"/>
			</g>
		</g>
	</g>
	<g id="Layer">
		<g id="Layer">
			<g id="Layer">
				<path id="Layer" fill-rule="evenodd" class="s0" d="m189.9 93.6q0 1.3-0.6 2.4-0.6 1-1.6 1.6-1 0.6-2.2 0.6-1.2 0-2.2-0.6-1.1-0.6-1.6-1.6-0.6-1.1-0.6-2.4 0-1.3 0.6-2.4 0.5-1 1.6-1.6 1-0.6 2.2-0.6 1.2 0 2.2 0.6 1 0.6 1.6 1.6 0.6 1.1 0.6 2.4zm-1.6 0q0-0.9-0.4-1.6-0.3-0.7-1-1.1-0.6-0.4-1.4-0.4-0.8 0-1.4 0.4-0.7 0.4-1.1 1.1-0.3 0.7-0.3 1.6 0 0.9 0.3 1.6 0.4 0.7 1.1 1.1 0.6 0.4 1.4 0.4 0.8 0 1.4-0.4 0.7-0.4 1-1.1 0.4-0.7 0.4-1.6z"/>
			</g>
		</g>
	</g>
	<g id="Layer">
		<g id="Layer">
			<g id="Layer">
				<path id="Layer" fill-rule="evenodd" class="s0" d="m210 89.1q0.4 0 0.6 0.2 0.2 0.3 0.2 0.6v7.4q0 1.3-0.6 2.2-0.5 1-1.5 1.4-1 0.4-2.3 0.4-0.6 0-1.5-0.2-0.9-0.2-1.2-0.5-0.5-0.3-0.5-0.7 0-0.1 0.1-0.2 0.2-0.4 0.6-0.4 0.2 0 0.5 0.1 1.3 0.5 2.1 0.5 1.3 0 2-0.7 0.7-0.6 0.7-1.7v-0.9q-0.3 0.6-1.1 1.1-0.9 0.5-1.8 0.5-1.2 0-2.1-0.6-1-0.6-1.5-1.7-0.6-1-0.6-2.3 0-1.3 0.6-2.4 0.5-1 1.5-1.6 0.9-0.6 2.1-0.6 0.9 0 1.7 0.4 0.8 0.4 1.2 1.1v-0.6q0-0.3 0.2-0.6 0.3-0.2 0.6-0.2zm-3.5 7.6q0.8 0 1.4-0.4 0.7-0.4 1-1.1 0.4-0.7 0.4-1.6 0-0.9-0.4-1.6-0.3-0.7-1-1.1-0.6-0.4-1.4-0.4-0.8 0-1.5 0.4-0.6 0.4-1 1.1-0.3 0.7-0.3 1.6 0 0.9 0.3 1.6 0.4 0.7 1 1.1 0.7 0.4 1.5 0.4z"/>
			</g>
		</g>
	</g>
	<g id="Layer">
		<g id="Layer">
			<g id="Layer">
				<path id="Layer" class="s0" d="m223.6 96.6q-0.2-0.2-0.1-0.4-0.1-0.4 0.3-0.6 0.2-0.1 0.4-0.1 0.3 0 0.5 0.2 0.5 0.6 1.1 0.9 0.6 0.3 1.4 0.3 0.6 0 1.1-0.3 0.5-0.3 0.5-0.9 0-0.6-0.5-0.9-0.5-0.3-1.4-0.5-1-0.3-1.6-0.6-0.6-0.3-1-0.8-0.5-0.5-0.5-1.4 0-0.7 0.5-1.3 0.4-0.6 1.1-0.9 0.7-0.3 1.6-0.3 0.8 0 1.6 0.3 0.8 0.3 1.3 0.9 0.2 0.3 0.2 0.5 0 0.3-0.3 0.5-0.2 0.2-0.4 0.2-0.3 0-0.5-0.2-0.4-0.4-0.9-0.6-0.5-0.3-1.1-0.3-0.7 0-1.1 0.3-0.4 0.3-0.4 0.9 0 0.6 0.5 0.9 0.5 0.2 1.5 0.5 0.9 0.2 1.5 0.5 0.5 0.3 1 0.8 0.4 0.5 0.4 1.4 0 0.8-0.5 1.4-0.4 0.5-1.2 0.8-0.7 0.4-1.5 0.4-1.1 0-2-0.4-0.9-0.4-1.5-1.2z"/>
			</g>
		</g>
	</g>
</svg>